<svg width="32" height="32" viewBox="0 0 32 32" fill="none" xmlns="http://www.w3.org/2000/svg">
<path d="M14.6667 2.66675C12.8986 2.66675 11.2029 3.36913 9.9527 4.61937C8.70246 5.86961 8.00008 7.5653 8.00008 9.33341C8.00008 11.1015 8.70246 12.7972 9.9527 14.0475C11.2029 15.2977 12.8986 16.0001 14.6667 16.0001C16.4349 16.0001 18.1305 15.2977 19.3808 14.0475C20.631 12.7972 21.3334 11.1015 21.3334 9.33341C21.3334 7.5653 20.631 5.86961 19.3808 4.61937C18.1305 3.36913 16.4349 2.66675 14.6667 2.66675ZM14.6667 17.3334C11.4734 17.3334 8.56675 18.2587 6.42941 19.5627C5.36275 20.2134 4.45075 20.9814 3.79208 21.8161C3.14408 22.6347 2.66675 23.6174 2.66675 24.6667C2.66675 25.7934 3.21475 26.6814 4.00408 27.3147C4.75075 27.9147 5.73608 28.3121 6.78275 28.5894C8.88675 29.1454 11.6947 29.3334 14.6667 29.3334L15.5801 29.3267C15.8034 29.3237 16.0223 29.2646 16.2169 29.1549C16.4114 29.0451 16.5752 28.8883 16.6933 28.6988C16.8114 28.5093 16.8801 28.2931 16.8929 28.0701C16.9057 27.8472 16.8624 27.6246 16.7667 27.4227C16.2612 26.3526 15.9993 25.1836 16.0001 24.0001C16.0001 22.3307 16.5107 20.7841 17.3827 19.5027C17.5124 19.3123 17.5904 19.0916 17.6094 18.862C17.6283 18.6325 17.5874 18.4019 17.4907 18.1928C17.3941 17.9838 17.2449 17.8033 17.0577 17.6691C16.8705 17.5348 16.6518 17.4513 16.4227 17.4267C15.8485 17.3645 15.2632 17.3334 14.6667 17.3334ZM24.4214 18.7347C24.1479 18.6437 23.8522 18.6437 23.5787 18.7347L19.5787 20.0681C19.3131 20.1565 19.0821 20.3264 18.9184 20.5535C18.7547 20.7806 18.6667 21.0535 18.6667 21.3334V23.5614C18.6666 24.9876 19.1923 26.3637 20.1434 27.4265C21.0944 28.4892 22.404 29.1639 23.8214 29.3214C23.9414 29.3347 24.0605 29.3347 24.1787 29.3214C25.5962 29.1639 26.9057 28.4892 27.8568 27.4265C28.8079 26.3637 29.3336 24.9876 29.3334 23.5614V21.3334C29.3335 21.0535 29.2454 20.7806 29.0817 20.5535C28.918 20.3264 28.687 20.1565 28.4214 20.0681L24.4214 18.7347Z" fill="#FF4F4E"/>
</svg>
