<svg width="42" height="46" viewBox="0 0 42 46" fill="none" xmlns="http://www.w3.org/2000/svg">
<g filter="url(#filter0_dd_106_339)">
<path d="M33.4738 6.57756L21.4738 2.57756C21.1665 2.47382 20.8336 2.47382 20.5263 2.57756L8.52631 6.57756C8.23998 6.67239 7.98888 6.85135 7.80581 7.09106C7.62274 7.33077 7.51618 7.62011 7.50006 7.92131C7.49868 7.94754 7.49868 7.97383 7.50006 8.00006V18.0001C7.50006 18.3979 7.65809 18.7794 7.9394 19.0607C8.2207 19.342 8.60223 19.5001 9.00006 19.5001C9.39788 19.5001 9.77941 19.342 10.0607 19.0607C10.342 18.7794 10.5001 18.3979 10.5001 18.0001V10.0813L13.4638 11.0688C12.544 12.8294 12.2707 14.8568 12.6914 16.7982C13.1121 18.7395 14.2002 20.4719 15.7663 21.6938C13.7168 22.7045 11.9823 24.2557 10.7501 26.1801C10.6391 26.345 10.562 26.5303 10.5233 26.7253C10.4846 26.9203 10.485 27.121 10.5246 27.3158C10.5641 27.5107 10.642 27.6957 10.7537 27.8601C10.8654 28.0246 11.0086 28.1652 11.1751 28.2738C11.3416 28.3824 11.5281 28.4568 11.7236 28.4927C11.9191 28.5286 12.1198 28.5253 12.314 28.483C12.5083 28.4407 12.6921 28.3601 12.855 28.2461C13.0178 28.1321 13.1564 27.9868 13.2626 27.8188C15.0463 25.0738 17.8751 23.5001 21.0001 23.5001C24.1251 23.5001 26.9538 25.0738 28.7438 27.8188C28.85 27.9868 28.9886 28.1321 29.1514 28.2461C29.3142 28.3601 29.4981 28.4407 29.6923 28.483C29.8866 28.5253 30.0873 28.5286 30.2828 28.4927C30.4783 28.4568 30.6647 28.3824 30.8312 28.2738C30.9977 28.1652 31.141 28.0246 31.2527 27.8601C31.3644 27.6957 31.4422 27.5107 31.4818 27.3158C31.5213 27.121 31.5218 26.9203 31.4831 26.7253C31.4444 26.5303 31.3673 26.345 31.2563 26.1801C30.0228 24.2535 28.286 22.7008 26.2338 21.6901C27.7999 20.4682 28.888 18.7358 29.3087 16.7944C29.7294 14.8531 29.4561 12.8257 28.5363 11.0651L33.4738 9.41881C33.7721 9.31901 34.0315 9.12797 34.2152 8.8727C34.399 8.61743 34.4979 8.31085 34.4979 7.99631C34.4979 7.68177 34.399 7.37519 34.2152 7.11992C34.0315 6.86465 33.7721 6.67361 33.4738 6.57381V6.57756ZM21.0001 5.57756L28.2563 8.00006L21.0001 10.4188L13.7501 8.00006L21.0001 5.57756ZM26.5001 15.0001C26.5002 15.8544 26.3014 16.6969 25.9193 17.461C25.5372 18.2251 24.9824 18.8897 24.2988 19.402C23.6152 19.9144 22.8217 20.2605 21.9811 20.4129C21.1405 20.5653 20.2759 20.5197 19.456 20.2799C18.6361 20.0401 17.8833 19.6125 17.2573 19.0312C16.6313 18.4498 16.1494 17.7307 15.8497 16.9307C15.5499 16.1307 15.4407 15.2719 15.5306 14.4223C15.6205 13.5728 15.9071 12.7559 16.3676 12.0363L20.5263 13.4226C20.8337 13.5258 21.1664 13.5258 21.4738 13.4226L25.6326 12.0363C26.1998 12.9207 26.5009 13.9494 26.5001 15.0001Z" fill="#FFD147"/>
</g>
<defs>
<filter id="filter0_dd_106_339" x="-2" y="0" width="46" height="49" filterUnits="userSpaceOnUse" color-interpolation-filters="sRGB">
<feFlood flood-opacity="0" result="BackgroundImageFix"/>
<feColorMatrix in="SourceAlpha" type="matrix" values="0 0 0 0 0 0 0 0 0 0 0 0 0 0 0 0 0 0 127 0" result="hardAlpha"/>
<feMorphology radius="4" operator="erode" in="SourceAlpha" result="effect1_dropShadow_106_339"/>
<feOffset dy="4"/>
<feGaussianBlur stdDeviation="3"/>
<feColorMatrix type="matrix" values="0 0 0 0 1 0 0 0 0 0.819608 0 0 0 0 0.278431 0 0 0 0.16 0"/>
<feBlend mode="normal" in2="BackgroundImageFix" result="effect1_dropShadow_106_339"/>
<feColorMatrix in="SourceAlpha" type="matrix" values="0 0 0 0 0 0 0 0 0 0 0 0 0 0 0 0 0 0 127 0" result="hardAlpha"/>
<feMorphology radius="8" operator="erode" in="SourceAlpha" result="effect2_dropShadow_106_339"/>
<feOffset dy="10"/>
<feGaussianBlur stdDeviation="7.5"/>
<feColorMatrix type="matrix" values="0 0 0 0 1 0 0 0 0 0.819608 0 0 0 0 0.278431 0 0 0 0.1 0"/>
<feBlend mode="normal" in2="effect1_dropShadow_106_339" result="effect2_dropShadow_106_339"/>
<feBlend mode="normal" in="SourceGraphic" in2="effect2_dropShadow_106_339" result="shape"/>
</filter>
</defs>
</svg>
